<?xml version="1.0" encoding="utf-8"?>
<!-- Generator: Adobe Illustrator 16.0.0, SVG Export Plug-In . SVG Version: 6.00 Build 0)  -->
<!DOCTYPE svg PUBLIC "-//W3C//DTD SVG 1.1//EN" "http://www.w3.org/Graphics/SVG/1.1/DTD/svg11.dtd">
<svg version="1.1" id="Layer_1" xmlns="http://www.w3.org/2000/svg" xmlns:xlink="http://www.w3.org/1999/xlink" x="0px" y="0px"
	 width="244.029px" height="80px" viewBox="0 0 244.029 80" enable-background="new 0 0 244.029 80" xml:space="preserve">
<g>
	<path fill="#36A9E1" d="M23.49,26.234v2.22H12.54v7.53h9.81v2.19h-9.81v9.06h-2.4V26.234H23.49z"/>
	<path fill="#36A9E1" d="M39.54,41.864H28.11l-2.34,5.37h-2.55l9.419-20.999h2.49l9.39,20.999h-2.61L39.54,41.864z M38.58,39.644
		l-4.77-10.799L29.1,39.644H38.58z"/>
	<path fill="#36A9E1" d="M50.219,26.234v20.999h-2.4V26.234H50.219z"/>
	<path fill="#36A9E1" d="M70.319,47.233l-4.41-6.72c-0.42,0.03-0.87,0.06-1.35,0.06h-5.58v6.66h-2.4V26.234h7.98
		c5.25,0,8.28,2.58,8.28,7.05c0,3.45-1.71,5.819-4.74,6.779l4.95,7.17H70.319z M64.559,38.354c3.81,0,5.97-1.709,5.97-5.01
		c0-3.209-2.16-4.89-5.97-4.89h-5.58v9.899H64.559z"/>
	<path d="M81.989,33.314c-1.77,0-3.12,0.63-3.12,2.13c0,3.57,8.82,1.74,8.82,7.41c0,3.09-2.76,4.47-5.79,4.47
		c-2.25,0-4.56-0.78-6.06-2.22l0.9-1.71c1.35,1.26,3.39,2.01,5.25,2.01c1.86,0,3.36-0.72,3.39-2.31c0.09-3.84-8.76-1.89-8.729-7.47
		c0-3,2.61-4.29,5.49-4.29c1.89,0,3.72,0.57,5.04,1.44l-0.9,1.8C85.049,33.794,83.459,33.314,81.989,33.314z"/>
	<path d="M106.168,37.514v9.72h-2.34v-9.12c0-2.82-1.68-4.5-4.47-4.5c-3.36,0.03-5.34,2.43-5.34,5.88v7.74h-2.34V24.974h2.34v10.02
		c1.08-2.46,3.24-3.6,6.15-3.63C103.949,31.364,106.168,33.674,106.168,37.514z"/>
	<path d="M121.199,47.233v-2.46c-1.26,1.71-3.27,2.55-5.79,2.55c-3.27,0-5.37-2.07-5.37-4.77c0-2.76,2.19-4.5,5.91-4.53h5.19v-0.99
		c0-2.31-1.44-3.72-4.23-3.72c-1.74,0-3.36,0.66-5.01,1.83l-0.99-1.65c2.04-1.35,3.75-2.13,6.45-2.13c3.9,0,6.06,2.07,6.089,5.43
		l0.03,10.439H121.199z M121.168,41.804v-1.92h-4.92c-2.64,0-4.02,0.81-4.02,2.58c0,1.74,1.41,2.91,3.63,2.91
		C118.529,45.374,120.568,44.054,121.168,41.804z"/>
	<path d="M136.708,31.364v2.28c-3.33-0.06-5.399,2.01-5.669,5.19v8.399h-2.34V31.454h2.34v3.51
		C132.089,32.654,134.039,31.394,136.708,31.364z"/>
	<path d="M142.528,26.924c0,0.9-0.66,1.59-1.53,1.59c-0.87,0-1.53-0.69-1.53-1.59c0-0.93,0.66-1.59,1.53-1.59
		C141.869,25.334,142.528,25.994,142.528,26.924z M142.168,31.454v15.779h-2.31V31.454H142.168z"/>
	<path d="M162.328,37.514v9.72h-2.34v-9.12c0-2.82-1.68-4.5-4.47-4.5c-3.12,0.03-5.04,2.1-5.31,5.16v8.459h-2.34V31.454h2.34v3.48
		c1.11-2.4,3.24-3.54,6.12-3.57C160.108,31.364,162.328,33.674,162.328,37.514z"/>
	<path d="M181.317,31.454v14.129c0,4.62-3.15,7.53-7.95,7.53c-2.49-0.03-4.56-0.84-6.479-2.31l1.08-1.71
		c1.56,1.29,3.209,1.98,5.31,2.01c3.45,0,5.7-2.13,5.7-5.459v-2.4c-1.11,2.1-3.15,3.3-5.82,3.3c-4.26,0-7.2-3.15-7.2-7.62
		c0-4.44,2.91-7.53,7.14-7.56c2.7-0.03,4.74,1.2,5.88,3.3v-3.21H181.317z M178.978,38.984c0-3.3-2.25-5.67-5.399-5.67
		c-3.18,0-5.4,2.37-5.43,5.67c0.03,3.27,2.25,5.64,5.43,5.64C176.728,44.624,178.978,42.253,178.978,38.984z"/>
	<path fill="#36A9E1" d="M188.218,45.943c0,0.87-0.63,1.53-1.44,1.53c-0.84,0-1.47-0.66-1.47-1.53s0.63-1.53,1.47-1.53
		C187.588,44.414,188.218,45.073,188.218,45.943z"/>
	<path fill="#36A9E1" d="M207.027,39.313c0,4.71-3.33,8.01-8.01,8.01c-4.709,0-8.01-3.3-8.01-8.01c0-4.68,3.3-7.949,8.01-7.949
		C203.697,31.364,207.027,34.634,207.027,39.313z M193.348,39.344c0,3.54,2.34,5.94,5.669,5.94c3.3,0,5.67-2.4,5.67-5.94
		c0-3.48-2.37-5.91-5.67-5.91C195.688,33.434,193.348,35.864,193.348,39.344z"/>
	<path fill="#36A9E1" d="M219.147,31.364v2.28c-3.33-0.06-5.399,2.01-5.669,5.19v8.399h-2.34V31.454h2.34v3.51
		C214.527,32.654,216.477,31.394,219.147,31.364z"/>
	<path fill="#36A9E1" d="M236.066,31.454v14.129c0,4.62-3.15,7.53-7.95,7.53c-2.49-0.03-4.56-0.84-6.479-2.31l1.08-1.71
		c1.56,1.29,3.209,1.98,5.31,2.01c3.45,0,5.7-2.13,5.7-5.459v-2.4c-1.11,2.1-3.15,3.3-5.82,3.3c-4.26,0-7.2-3.15-7.2-7.62
		c0-4.44,2.91-7.53,7.14-7.56c2.7-0.03,4.74,1.2,5.88,3.3v-3.21H236.066z M233.727,38.984c0-3.3-2.25-5.67-5.399-5.67
		c-3.18,0-5.4,2.37-5.43,5.67c0.03,3.27,2.25,5.64,5.43,5.64C231.477,44.624,233.727,42.253,233.727,38.984z"/>
</g>
<g>
	<g>
		<path fill="#36A9E1" d="M53.282,63.396c-4.738,0-10.152-1.413-15.708-5.662c-5.472-4.182-10.654-5.941-15.397-5.243
			c-5.686,0.844-8.768,5.052-8.799,5.089c-0.23,0.325-0.68,0.397-1.006,0.17c-0.325-0.231-0.395-0.678-0.165-1.002
			c0.135-0.194,3.438-4.735,9.729-5.679c5.16-0.772,10.708,1.083,16.514,5.519c15.691,11.987,30.115,0.146,30.262,0.024
			c0.303-0.253,0.761-0.219,1.015,0.086c0.256,0.307,0.215,0.762-0.088,1.02C69.537,57.802,62.724,63.396,53.282,63.396
			L53.282,63.396z"/>
	</g>
	<g>
		<g>
			<path fill="#323E50" d="M24.241,63.431c-0.776,0-1.546-0.055-2.305-0.168c-6.292-0.947-9.595-5.488-9.729-5.684
				c-0.229-0.32-0.16-0.768,0.165-0.998c0.326-0.232,0.775-0.159,1.006,0.163c0.031,0.044,3.113,4.251,8.799,5.093
				c4.743,0.708,9.926-1.056,15.397-5.25c16.599-12.672,31.909-0.107,32.064,0.024c0.303,0.262,0.344,0.712,0.088,1.015
				c-0.254,0.304-0.712,0.344-1.015,0.091c-0.586-0.496-14.596-11.945-30.262,0.017C33.497,61.523,28.729,63.431,24.241,63.431
				L24.241,63.431z"/>
		</g>
	</g>
</g>
<g>
	<path d="M78.136,58.654c-0.283-0.297-0.424-0.628-0.424-0.994c0-0.422,0.174-0.787,0.521-1.093c0.347-0.307,0.831-0.459,1.45-0.459
		c0.412,0,0.801,0.075,1.168,0.225c0.367,0.15,0.68,0.371,0.938,0.664l-0.594,0.502c-0.222-0.254-0.452-0.441-0.688-0.562
		c-0.236-0.12-0.507-0.18-0.812-0.18c-0.391,0-0.687,0.084-0.89,0.252s-0.304,0.363-0.304,0.585c0,0.19,0.079,0.36,0.236,0.51
		c0.154,0.15,0.516,0.299,1.084,0.447c0.877,0.227,1.468,0.501,1.772,0.824c0.305,0.322,0.457,0.676,0.457,1.062
		c0,0.461-0.182,0.856-0.545,1.186c-0.363,0.329-0.858,0.494-1.485,0.494c-0.458,0-0.881-0.086-1.268-0.258
		c-0.387-0.172-0.795-0.459-1.225-0.862l0.674-0.47c0.322,0.322,0.624,0.552,0.907,0.69c0.283,0.138,0.581,0.207,0.896,0.207
		c0.401,0,0.711-0.096,0.931-0.288c0.22-0.191,0.33-0.416,0.33-0.674c0-0.215-0.083-0.399-0.247-0.553
		c-0.233-0.218-0.7-0.419-1.402-0.602c-0.433-0.115-0.793-0.242-1.08-0.381C78.396,58.86,78.261,58.769,78.136,58.654z"/>
	<path d="M84.022,54.121h0.773v2.105h1.434v0.714h-1.434v3.588c0,0.297,0.079,0.529,0.236,0.695c0.158,0.167,0.369,0.25,0.634,0.25
		c0.143,0,0.331-0.029,0.564-0.086v0.704c-0.269,0.032-0.494,0.048-0.677,0.048c-0.551,0-0.944-0.115-1.179-0.344
		c-0.234-0.229-0.352-0.605-0.352-1.128V56.94h-1.01v-0.714h1.01V54.121z"/>
	<path d="M87.39,57.225c0.369-0.383,0.768-0.665,1.198-0.846c0.43-0.181,0.851-0.271,1.262-0.271c0.476,0,0.882,0.105,1.216,0.317
		c0.335,0.211,0.567,0.473,0.696,0.784c0.097,0.24,0.145,0.561,0.145,0.961v2.449c0,0.487,0.056,0.947,0.167,1.38h-0.8
		c-0.097-0.34-0.148-0.663-0.156-0.967c-0.358,0.362-0.722,0.633-1.093,0.813c-0.37,0.181-0.749,0.271-1.136,0.271
		c-0.491,0-0.886-0.148-1.187-0.443s-0.451-0.667-0.451-1.115c0-0.365,0.116-0.708,0.349-1.027c0.233-0.319,0.594-0.57,1.085-0.752
		c0.358-0.133,1.169-0.337,2.433-0.612v-0.359c0-0.304-0.106-0.558-0.32-0.761c-0.213-0.204-0.482-0.306-0.808-0.306
		c-0.293,0-0.599,0.073-0.916,0.217c-0.317,0.146-0.687,0.397-1.109,0.755L87.39,57.225z M91.118,60.581v-1.839
		c-0.87,0.208-1.443,0.36-1.719,0.457c-0.44,0.151-0.764,0.345-0.969,0.583c-0.206,0.238-0.309,0.492-0.309,0.761
		c0,0.254,0.088,0.465,0.266,0.632c0.177,0.167,0.414,0.25,0.711,0.25c0.283,0,0.593-0.071,0.929-0.212S90.728,60.861,91.118,60.581
		z"/>
	<path d="M94.652,56.892c0.422-0.25,0.832-0.444,1.228-0.58c0.396-0.136,0.717-0.204,0.964-0.204c0.276,0,0.531,0.058,0.766,0.174
		c0.234,0.117,0.438,0.317,0.609,0.602c0.172,0.285,0.258,0.639,0.258,1.061V62h-0.784v-3.996c0-0.397-0.088-0.693-0.263-0.886
		s-0.414-0.29-0.714-0.29c-0.276,0-0.585,0.059-0.929,0.177s-0.722,0.297-1.133,0.537V62h-0.784v-5.774h0.784V56.892z"/>
	<path d="M104.325,53.857h0.779v6.343c0,0.33,0.021,0.67,0.064,1.023c0.043,0.353,0.091,0.612,0.145,0.776h-0.806
		c-0.086-0.297-0.131-0.564-0.134-0.8c-0.347,0.304-0.69,0.534-1.029,0.688c-0.338,0.154-0.672,0.231-1.001,0.231
		c-0.652,0-1.211-0.264-1.678-0.792c-0.468-0.528-0.701-1.26-0.701-2.194c0-0.956,0.235-1.699,0.706-2.229
		c0.471-0.53,1.032-0.795,1.684-0.795c0.333,0,0.657,0.071,0.972,0.212c0.315,0.141,0.648,0.366,0.999,0.674V53.857z
		 M104.325,57.671c-0.322-0.287-0.639-0.5-0.951-0.642c-0.312-0.142-0.618-0.212-0.918-0.212c-0.491,0-0.899,0.191-1.225,0.572
		c-0.326,0.382-0.489,0.946-0.489,1.695c0,0.784,0.167,1.371,0.5,1.759c0.333,0.388,0.739,0.583,1.219,0.583
		c0.293,0,0.596-0.073,0.908-0.217c0.312-0.146,0.63-0.363,0.956-0.653V57.671z"/>
	<path d="M106.887,57.225c0.369-0.383,0.768-0.665,1.198-0.846c0.43-0.181,0.851-0.271,1.262-0.271c0.476,0,0.882,0.105,1.216,0.317
		c0.335,0.211,0.567,0.473,0.696,0.784c0.097,0.24,0.145,0.561,0.145,0.961v2.449c0,0.487,0.056,0.947,0.167,1.38h-0.8
		c-0.097-0.34-0.148-0.663-0.156-0.967c-0.358,0.362-0.722,0.633-1.093,0.813c-0.37,0.181-0.749,0.271-1.136,0.271
		c-0.491,0-0.886-0.148-1.187-0.443s-0.451-0.667-0.451-1.115c0-0.365,0.116-0.708,0.349-1.027c0.233-0.319,0.594-0.57,1.085-0.752
		c0.358-0.133,1.169-0.337,2.433-0.612v-0.359c0-0.304-0.106-0.558-0.32-0.761c-0.213-0.204-0.482-0.306-0.808-0.306
		c-0.293,0-0.599,0.073-0.916,0.217c-0.317,0.146-0.687,0.397-1.109,0.755L106.887,57.225z M110.615,60.581v-1.839
		c-0.87,0.208-1.443,0.36-1.719,0.457c-0.44,0.151-0.764,0.345-0.969,0.583c-0.206,0.238-0.309,0.492-0.309,0.761
		c0,0.254,0.088,0.465,0.266,0.632c0.177,0.167,0.414,0.25,0.711,0.25c0.283,0,0.593-0.071,0.929-0.212
		S110.225,60.861,110.615,60.581z"/>
	<path d="M114.187,57.531c0.322-0.494,0.66-0.856,1.012-1.085c0.353-0.229,0.755-0.344,1.206-0.344c0.05,0,0.122,0.002,0.215,0.005
		l-0.113,0.865l-0.285-0.016c-0.208-0.011-0.44,0.039-0.698,0.148c-0.258,0.109-0.488,0.282-0.69,0.518
		c-0.202,0.236-0.36,0.53-0.475,0.881s-0.172,0.661-0.172,0.929V62h-0.784v-5.774h0.784V57.531z"/>
	<path d="M121.529,53.857h0.779v6.343c0,0.33,0.021,0.67,0.064,1.023c0.043,0.353,0.091,0.612,0.145,0.776h-0.806
		c-0.086-0.297-0.131-0.564-0.134-0.8c-0.347,0.304-0.69,0.534-1.029,0.688c-0.338,0.154-0.672,0.231-1.001,0.231
		c-0.652,0-1.211-0.264-1.678-0.792c-0.468-0.528-0.701-1.26-0.701-2.194c0-0.956,0.235-1.699,0.706-2.229
		c0.471-0.53,1.032-0.795,1.684-0.795c0.333,0,0.657,0.071,0.972,0.212c0.315,0.141,0.648,0.366,0.999,0.674V53.857z
		 M121.529,57.671c-0.322-0.287-0.639-0.5-0.951-0.642c-0.312-0.142-0.618-0.212-0.918-0.212c-0.491,0-0.899,0.191-1.225,0.572
		c-0.326,0.382-0.489,0.946-0.489,1.695c0,0.784,0.167,1.371,0.5,1.759c0.333,0.388,0.739,0.583,1.219,0.583
		c0.293,0,0.596-0.073,0.908-0.217c0.312-0.146,0.63-0.363,0.956-0.653V57.671z"/>
	<path d="M124.461,58.654c-0.283-0.297-0.424-0.628-0.424-0.994c0-0.422,0.174-0.787,0.521-1.093
		c0.347-0.307,0.831-0.459,1.45-0.459c0.412,0,0.801,0.075,1.168,0.225c0.367,0.15,0.68,0.371,0.938,0.664l-0.594,0.502
		c-0.222-0.254-0.452-0.441-0.688-0.562c-0.236-0.12-0.507-0.18-0.812-0.18c-0.391,0-0.687,0.084-0.89,0.252
		s-0.304,0.363-0.304,0.585c0,0.19,0.079,0.36,0.236,0.51c0.154,0.15,0.516,0.299,1.084,0.447c0.877,0.227,1.468,0.501,1.772,0.824
		c0.305,0.322,0.457,0.676,0.457,1.062c0,0.461-0.182,0.856-0.545,1.186c-0.363,0.329-0.858,0.494-1.485,0.494
		c-0.458,0-0.881-0.086-1.268-0.258c-0.387-0.172-0.795-0.459-1.225-0.862l0.674-0.47c0.322,0.322,0.624,0.552,0.907,0.69
		c0.283,0.138,0.581,0.207,0.896,0.207c0.401,0,0.711-0.096,0.931-0.288c0.22-0.191,0.33-0.416,0.33-0.674
		c0-0.215-0.083-0.399-0.247-0.553c-0.233-0.218-0.7-0.419-1.402-0.602c-0.433-0.115-0.793-0.242-1.08-0.381
		C124.721,58.86,124.587,58.769,124.461,58.654z"/>
	<path d="M130.053,60.765h1.053V62l-0.806,1.622h-0.447L130.568,62h-0.516V60.765z"/>
	<path d="M140.677,53.857h0.779v6.343c0,0.33,0.021,0.67,0.064,1.023c0.043,0.353,0.091,0.612,0.145,0.776h-0.806
		c-0.086-0.297-0.131-0.564-0.134-0.8c-0.347,0.304-0.69,0.534-1.029,0.688c-0.338,0.154-0.672,0.231-1.001,0.231
		c-0.652,0-1.211-0.264-1.678-0.792c-0.468-0.528-0.701-1.26-0.701-2.194c0-0.956,0.235-1.699,0.706-2.229
		c0.471-0.53,1.032-0.795,1.684-0.795c0.333,0,0.657,0.071,0.972,0.212c0.315,0.141,0.648,0.366,0.999,0.674V53.857z
		 M140.677,57.671c-0.322-0.287-0.639-0.5-0.951-0.642c-0.312-0.142-0.618-0.212-0.918-0.212c-0.491,0-0.899,0.191-1.225,0.572
		c-0.326,0.382-0.489,0.946-0.489,1.695c0,0.784,0.167,1.371,0.5,1.759c0.333,0.388,0.739,0.583,1.219,0.583
		c0.293,0,0.596-0.073,0.908-0.217c0.312-0.146,0.63-0.363,0.956-0.653V57.671z"/>
	<path d="M143.239,57.225c0.369-0.383,0.768-0.665,1.198-0.846c0.43-0.181,0.851-0.271,1.262-0.271c0.476,0,0.882,0.105,1.216,0.317
		c0.335,0.211,0.567,0.473,0.696,0.784c0.097,0.24,0.145,0.561,0.145,0.961v2.449c0,0.487,0.056,0.947,0.167,1.38h-0.8
		c-0.097-0.34-0.148-0.663-0.156-0.967c-0.358,0.362-0.722,0.633-1.093,0.813c-0.37,0.181-0.749,0.271-1.136,0.271
		c-0.491,0-0.886-0.148-1.187-0.443s-0.451-0.667-0.451-1.115c0-0.365,0.116-0.708,0.349-1.027c0.233-0.319,0.594-0.57,1.085-0.752
		c0.358-0.133,1.169-0.337,2.433-0.612v-0.359c0-0.304-0.106-0.558-0.32-0.761c-0.213-0.204-0.482-0.306-0.808-0.306
		c-0.293,0-0.599,0.073-0.916,0.217c-0.317,0.146-0.687,0.397-1.109,0.755L143.239,57.225z M146.966,60.581v-1.839
		c-0.87,0.208-1.443,0.36-1.719,0.457c-0.44,0.151-0.764,0.345-0.969,0.583c-0.206,0.238-0.309,0.492-0.309,0.761
		c0,0.254,0.088,0.465,0.266,0.632c0.177,0.167,0.414,0.25,0.711,0.25c0.283,0,0.593-0.071,0.929-0.212
		S146.576,60.861,146.966,60.581z"/>
	<path d="M150.082,54.121h0.773v2.105h1.434v0.714h-1.434v3.588c0,0.297,0.079,0.529,0.236,0.695c0.158,0.167,0.369,0.25,0.634,0.25
		c0.143,0,0.331-0.029,0.564-0.086v0.704c-0.269,0.032-0.494,0.048-0.677,0.048c-0.551,0-0.944-0.115-1.179-0.344
		c-0.234-0.229-0.352-0.605-0.352-1.128V56.94h-1.01v-0.714h1.01V54.121z"/>
	<path d="M153.449,57.225c0.369-0.383,0.768-0.665,1.198-0.846c0.43-0.181,0.851-0.271,1.262-0.271c0.476,0,0.882,0.105,1.216,0.317
		c0.335,0.211,0.567,0.473,0.696,0.784c0.097,0.24,0.145,0.561,0.145,0.961v2.449c0,0.487,0.056,0.947,0.167,1.38h-0.8
		c-0.097-0.34-0.148-0.663-0.156-0.967c-0.358,0.362-0.722,0.633-1.093,0.813c-0.37,0.181-0.749,0.271-1.136,0.271
		c-0.491,0-0.886-0.148-1.187-0.443s-0.451-0.667-0.451-1.115c0-0.365,0.116-0.708,0.349-1.027c0.233-0.319,0.594-0.57,1.085-0.752
		c0.358-0.133,1.169-0.337,2.433-0.612v-0.359c0-0.304-0.106-0.558-0.32-0.761c-0.213-0.204-0.482-0.306-0.808-0.306
		c-0.293,0-0.599,0.073-0.916,0.217c-0.317,0.146-0.687,0.397-1.109,0.755L153.449,57.225z M157.177,60.581v-1.839
		c-0.87,0.208-1.443,0.36-1.719,0.457c-0.44,0.151-0.764,0.345-0.969,0.583c-0.206,0.238-0.309,0.492-0.309,0.761
		c0,0.254,0.088,0.465,0.266,0.632c0.177,0.167,0.414,0.25,0.711,0.25c0.283,0,0.593-0.071,0.929-0.212
		S156.787,60.861,157.177,60.581z"/>
	<path d="M159.841,53.857h0.779v3.104c0.254-0.258,0.562-0.465,0.924-0.62c0.362-0.156,0.711-0.234,1.047-0.234
		c0.652,0,1.215,0.269,1.689,0.806c0.474,0.537,0.711,1.27,0.711,2.197c0,0.587-0.106,1.118-0.32,1.593
		c-0.213,0.474-0.512,0.829-0.896,1.063c-0.385,0.234-0.789,0.352-1.211,0.352c-0.322,0-0.636-0.067-0.94-0.201
		c-0.304-0.135-0.639-0.359-1.004-0.674V62h-0.779V53.857z M160.62,60.561c0.401,0.319,0.744,0.538,1.029,0.658
		c0.284,0.12,0.57,0.18,0.856,0.18c0.473,0,0.875-0.195,1.208-0.585s0.5-0.967,0.5-1.729c0-0.749-0.168-1.316-0.505-1.703
		s-0.755-0.58-1.257-0.58c-0.304,0-0.609,0.071-0.916,0.212c-0.306,0.142-0.611,0.355-0.916,0.642V60.561z"/>
	<path d="M166.302,57.225c0.369-0.383,0.768-0.665,1.198-0.846c0.43-0.181,0.851-0.271,1.262-0.271c0.476,0,0.882,0.105,1.216,0.317
		c0.335,0.211,0.567,0.473,0.696,0.784c0.097,0.24,0.145,0.561,0.145,0.961v2.449c0,0.487,0.056,0.947,0.167,1.38h-0.8
		c-0.097-0.34-0.148-0.663-0.156-0.967c-0.358,0.362-0.722,0.633-1.093,0.813c-0.37,0.181-0.749,0.271-1.136,0.271
		c-0.491,0-0.886-0.148-1.187-0.443s-0.451-0.667-0.451-1.115c0-0.365,0.116-0.708,0.349-1.027c0.233-0.319,0.594-0.57,1.085-0.752
		c0.358-0.133,1.169-0.337,2.433-0.612v-0.359c0-0.304-0.106-0.558-0.32-0.761c-0.213-0.204-0.482-0.306-0.808-0.306
		c-0.293,0-0.599,0.073-0.916,0.217c-0.317,0.146-0.687,0.397-1.109,0.755L166.302,57.225z M170.03,60.581v-1.839
		c-0.87,0.208-1.443,0.36-1.719,0.457c-0.44,0.151-0.764,0.345-0.969,0.583c-0.206,0.238-0.309,0.492-0.309,0.761
		c0,0.254,0.088,0.465,0.266,0.632c0.177,0.167,0.414,0.25,0.711,0.25c0.283,0,0.593-0.071,0.929-0.212S169.64,60.861,170.03,60.581
		z"/>
	<path d="M172.866,58.654c-0.283-0.297-0.424-0.628-0.424-0.994c0-0.422,0.174-0.787,0.521-1.093
		c0.347-0.307,0.831-0.459,1.45-0.459c0.412,0,0.801,0.075,1.168,0.225c0.367,0.15,0.68,0.371,0.938,0.664l-0.594,0.502
		c-0.222-0.254-0.452-0.441-0.688-0.562c-0.236-0.12-0.507-0.18-0.812-0.18c-0.391,0-0.687,0.084-0.89,0.252
		s-0.304,0.363-0.304,0.585c0,0.19,0.079,0.36,0.236,0.51c0.154,0.15,0.516,0.299,1.084,0.447c0.877,0.227,1.468,0.501,1.772,0.824
		c0.305,0.322,0.457,0.676,0.457,1.062c0,0.461-0.182,0.856-0.545,1.186c-0.363,0.329-0.858,0.494-1.485,0.494
		c-0.458,0-0.881-0.086-1.268-0.258c-0.387-0.172-0.795-0.459-1.225-0.862l0.674-0.47c0.322,0.322,0.624,0.552,0.907,0.69
		c0.283,0.138,0.581,0.207,0.896,0.207c0.401,0,0.711-0.096,0.931-0.288c0.22-0.191,0.33-0.416,0.33-0.674
		c0-0.215-0.083-0.399-0.247-0.553c-0.233-0.218-0.7-0.419-1.402-0.602c-0.433-0.115-0.793-0.242-1.08-0.381
		C173.125,58.86,172.991,58.769,172.866,58.654z"/>
	<path d="M182.818,60.706c-0.354,0.476-0.732,0.831-1.133,1.063s-0.816,0.349-1.246,0.349c-0.68,0-1.264-0.268-1.751-0.803
		c-0.487-0.536-0.73-1.281-0.73-2.237c0-0.92,0.241-1.646,0.723-2.175c0.481-0.53,1.044-0.795,1.689-0.795
		c0.43,0,0.843,0.126,1.241,0.378c0.397,0.253,0.695,0.594,0.895,1.023c0.198,0.43,0.303,0.988,0.314,1.676h-4.077
		c0.018,0.458,0.088,0.834,0.209,1.128c0.161,0.387,0.378,0.669,0.65,0.846c0.272,0.178,0.535,0.266,0.79,0.266
		c0.637,0,1.233-0.39,1.789-1.171L182.818,60.706z M182.002,58.482c-0.057-0.544-0.243-0.971-0.556-1.281
		c-0.313-0.31-0.667-0.465-1.061-0.465c-0.48,0-0.864,0.184-1.152,0.551c-0.288,0.367-0.441,0.765-0.459,1.195H182.002z"/>
	<path d="M184.435,58.654c-0.283-0.297-0.424-0.628-0.424-0.994c0-0.422,0.174-0.787,0.521-1.093
		c0.347-0.307,0.831-0.459,1.45-0.459c0.412,0,0.801,0.075,1.168,0.225c0.367,0.15,0.68,0.371,0.938,0.664l-0.594,0.502
		c-0.222-0.254-0.452-0.441-0.688-0.562c-0.236-0.12-0.507-0.18-0.812-0.18c-0.391,0-0.687,0.084-0.89,0.252
		s-0.304,0.363-0.304,0.585c0,0.19,0.079,0.36,0.236,0.51c0.154,0.15,0.516,0.299,1.084,0.447c0.877,0.227,1.468,0.501,1.772,0.824
		c0.305,0.322,0.457,0.676,0.457,1.062c0,0.461-0.182,0.856-0.545,1.186c-0.363,0.329-0.858,0.494-1.485,0.494
		c-0.458,0-0.881-0.086-1.268-0.258c-0.387-0.172-0.795-0.459-1.225-0.862l0.674-0.47c0.322,0.322,0.624,0.552,0.907,0.69
		c0.283,0.138,0.581,0.207,0.896,0.207c0.401,0,0.711-0.096,0.931-0.288c0.22-0.191,0.33-0.416,0.33-0.674
		c0-0.215-0.083-0.399-0.247-0.553c-0.233-0.218-0.7-0.419-1.402-0.602c-0.433-0.115-0.793-0.242-1.08-0.381
		C184.695,58.86,184.561,58.769,184.435,58.654z"/>
	<path d="M190.026,60.765h1.053V62l-0.806,1.622h-0.447L190.542,62h-0.516V60.765z"/>
	<path d="M197.524,56.957c0.315-0.283,0.637-0.495,0.964-0.636c0.328-0.142,0.662-0.212,1.002-0.212
		c0.426,0,0.832,0.122,1.217,0.365c0.385,0.244,0.679,0.604,0.883,1.08s0.306,0.999,0.306,1.568c0,0.598-0.105,1.131-0.317,1.598
		c-0.211,0.468-0.509,0.817-0.894,1.05c-0.385,0.233-0.784,0.349-1.195,0.349c-0.34,0-0.674-0.073-1.002-0.22
		c-0.327-0.147-0.649-0.365-0.964-0.655v2.954h-0.779v-7.971h0.779V56.957z M197.524,60.561c0.34,0.279,0.669,0.489,0.988,0.628
		s0.628,0.209,0.929,0.209c0.455,0,0.848-0.195,1.179-0.585c0.331-0.39,0.497-0.974,0.497-1.751c0-0.745-0.169-1.31-0.507-1.695
		c-0.339-0.385-0.748-0.577-1.228-0.577c-0.283,0-0.579,0.071-0.889,0.212c-0.31,0.142-0.633,0.355-0.97,0.642V60.561z"/>
	<path d="M205.705,62.118c-0.741,0-1.364-0.271-1.869-0.811s-0.757-1.268-0.757-2.181c0-0.609,0.112-1.148,0.336-1.62
		c0.224-0.471,0.536-0.821,0.937-1.053c0.401-0.23,0.827-0.346,1.278-0.346c0.437,0,0.855,0.119,1.254,0.357
		c0.399,0.238,0.715,0.598,0.948,1.08c0.233,0.481,0.349,1.02,0.349,1.614c0,0.906-0.245,1.625-0.736,2.159
		S206.374,62.118,205.705,62.118z M205.635,61.452c0.473,0,0.884-0.204,1.232-0.612c0.35-0.408,0.524-0.994,0.524-1.756
		c0-0.752-0.17-1.325-0.51-1.719s-0.75-0.591-1.23-0.591c-0.508,0-0.936,0.201-1.281,0.602c-0.346,0.401-0.519,0.974-0.519,1.719
		c0,0.763,0.174,1.346,0.521,1.751S205.141,61.452,205.635,61.452z"/>
	<path d="M209.937,53.857h0.784V62h-0.784V53.857z"/>
	<path d="M213.025,53.933h0.784v0.94h-0.784V53.933z M213.025,56.226h0.784V62h-0.784V56.226z"/>
	<path d="M220.319,60.598c-0.261,0.469-0.548,0.82-0.859,1.053c-0.416,0.312-0.883,0.467-1.402,0.467
		c-0.451,0-0.875-0.122-1.27-0.365c-0.396-0.244-0.702-0.596-0.919-1.058c-0.216-0.462-0.325-0.992-0.325-1.59
		c0-0.92,0.246-1.65,0.739-2.189c0.492-0.539,1.085-0.808,1.78-0.808c0.469,0,0.895,0.124,1.278,0.371s0.709,0.618,0.978,1.112
		l-0.682,0.371c-0.218-0.405-0.455-0.706-0.709-0.905c-0.254-0.198-0.546-0.298-0.875-0.298c-0.469,0-0.875,0.201-1.217,0.602
		c-0.342,0.401-0.513,0.999-0.513,1.794c0,0.702,0.173,1.257,0.519,1.665c0.345,0.408,0.742,0.612,1.189,0.612
		c0.677,0,1.212-0.403,1.606-1.208L220.319,60.598z"/>
	<path d="M221.952,53.933h0.784v0.94h-0.784V53.933z M221.952,56.226h0.784V62h-0.784V56.226z"/>
	<path d="M229.337,60.706c-0.354,0.476-0.732,0.831-1.133,1.063s-0.816,0.349-1.246,0.349c-0.68,0-1.264-0.268-1.751-0.803
		c-0.487-0.536-0.73-1.281-0.73-2.237c0-0.92,0.241-1.646,0.723-2.175c0.481-0.53,1.044-0.795,1.689-0.795
		c0.43,0,0.843,0.126,1.241,0.378c0.397,0.253,0.695,0.594,0.895,1.023c0.198,0.43,0.303,0.988,0.314,1.676h-4.077
		c0.018,0.458,0.088,0.834,0.209,1.128c0.161,0.387,0.378,0.669,0.65,0.846c0.272,0.178,0.535,0.266,0.79,0.266
		c0.637,0,1.233-0.39,1.789-1.171L229.337,60.706z M228.521,58.482c-0.057-0.544-0.243-0.971-0.556-1.281
		c-0.313-0.31-0.667-0.465-1.061-0.465c-0.48,0-0.864,0.184-1.152,0.551c-0.288,0.367-0.441,0.765-0.459,1.195H228.521z"/>
	<path d="M230.954,58.654c-0.283-0.297-0.424-0.628-0.424-0.994c0-0.422,0.174-0.787,0.521-1.093
		c0.347-0.307,0.831-0.459,1.45-0.459c0.412,0,0.801,0.075,1.168,0.225c0.367,0.15,0.68,0.371,0.938,0.664l-0.594,0.502
		c-0.222-0.254-0.452-0.441-0.688-0.562c-0.236-0.12-0.507-0.18-0.812-0.18c-0.391,0-0.687,0.084-0.89,0.252
		s-0.304,0.363-0.304,0.585c0,0.19,0.079,0.36,0.236,0.51c0.154,0.15,0.516,0.299,1.084,0.447c0.877,0.227,1.468,0.501,1.772,0.824
		c0.305,0.322,0.457,0.676,0.457,1.062c0,0.461-0.182,0.856-0.545,1.186c-0.363,0.329-0.858,0.494-1.485,0.494
		c-0.458,0-0.881-0.086-1.268-0.258c-0.387-0.172-0.795-0.459-1.225-0.862l0.674-0.47c0.322,0.322,0.624,0.552,0.907,0.69
		c0.283,0.138,0.581,0.207,0.896,0.207c0.401,0,0.711-0.096,0.931-0.288c0.22-0.191,0.33-0.416,0.33-0.674
		c0-0.215-0.083-0.399-0.247-0.553c-0.233-0.218-0.7-0.419-1.402-0.602c-0.433-0.115-0.793-0.242-1.08-0.381
		C231.214,58.86,231.08,58.769,230.954,58.654z"/>
</g>
</svg>
